<?xml version="1.0" encoding="utf-8"?>
<!-- Generator: Adobe Illustrator 27.9.0, SVG Export Plug-In . SVG Version: 6.00 Build 0)  -->
<svg version="1.1" id="Layer_1" xmlns="http://www.w3.org/2000/svg" xmlns:xlink="http://www.w3.org/1999/xlink" x="0px" y="0px"
	 viewBox="0 0 512 512" style="enable-background:new 0 0 512 512;" xml:space="preserve">
   <style>
   path{
    fill:#FFF;
   }
   </style>
<path d="M426.7,117.8H384V81.6c0-34.6-31.6-62.7-70.5-62.7H198.5C159.6,18.9,128,47,128,81.6v36.2H85.3C38.2,117.8,0,156,0,203.1
	v204.8c0,47.1,38.2,85.3,85.3,85.3h341.4c47.1,0,85.3-38.2,85.3-85.3V203.1C512,156,473.8,117.8,426.7,117.8z M192.2,81.6
	c0-3.1,2.8-5.6,6.3-5.6h115c3.4,0.1,6.2,2.6,6.2,5.6v36.2H192.2V81.6z M417.1,252.8L304,302.3c-15.1,6.8-31.4,10.4-48,10.6
	c-16.6-0.2-32.9-3.8-48-10.6L96,252.8c-8.8-3.8-12.9-14.1-9-23c3.8-8.8,14.1-12.9,23-9l112,49.8c22.1,9.8,47.2,9.8,69.3,0l112-49.8
	c8.8-3.8,19.1,0.2,23,9C430,238.7,426,249,417.1,252.8z"/>
</svg>
