<?xml version="1.0" encoding="utf-8"?>
<!-- Generator: Adobe Illustrator 27.9.0, SVG Export Plug-In . SVG Version: 6.00 Build 0)  -->
<svg version="1.1" id="Layer_1" xmlns="http://www.w3.org/2000/svg" xmlns:xlink="http://www.w3.org/1999/xlink" x="0px" y="0px"
	 viewBox="0 0 11.65 13.63" style="enable-background:new 0 0 11.65 13.63;" xml:space="preserve">
<style type="text/css">
	.st0{fill-rule:evenodd;clip-rule:evenodd;fill:url(#SVGID_1_);}
</style>
<linearGradient id="SVGID_1_" gradientUnits="userSpaceOnUse" x1="5.8228" y1="13.6342" x2="5.8228" y2="0">
	<stop  offset="0" style="stop-color:#000000"/>
	<stop  offset="1" style="stop-color:#575858"/>
</linearGradient>
<path class="st0" d="M2.44,7.91c1.07-0.39,2.31-0.54,3.38-0.54c1.08,0,2.31,0.15,3.38,0.54c0.94,0.34,1.76,0.87,2.28,1.63
	c0.1,0.14,0.16,0.32,0.16,0.51v2.69c0,0.49-0.4,0.89-0.9,0.89H5.82H0.9c-0.49,0-0.9-0.4-0.9-0.89v-2.68c0-0.18,0.05-0.35,0.15-0.51
	C0.67,8.78,1.49,8.25,2.44,7.91z M9.04,3.23c0,1.79-1.45,3.23-3.23,3.23S2.57,5.02,2.57,3.23S4.02,0,5.81,0S9.04,1.45,9.04,3.23z"/>
</svg>
