<?xml version="1.0" encoding="utf-8"?>
<!-- Generator: Adobe Illustrator 27.9.0, SVG Export Plug-In . SVG Version: 6.00 Build 0)  -->
<svg version="1.1" id="Layer_1" xmlns="http://www.w3.org/2000/svg" xmlns:xlink="http://www.w3.org/1999/xlink" x="0px" y="0px"
	 viewBox="0 0 10.75 14.33" style="enable-background:new 0 0 10.75 14.33;" xml:space="preserve">
<style type="text/css">
	.st0{fill-rule:evenodd;clip-rule:evenodd;fill:url(#SVGID_1_);}
</style>
<linearGradient id="SVGID_1_" gradientUnits="userSpaceOnUse" x1="5.3742" y1="14.3325" x2="5.3742" y2="0">
	<stop  offset="0" style="stop-color:#000000"/>
	<stop  offset="1" style="stop-color:#575858"/>
</linearGradient>
<path class="st0" d="M2.69,5.82h5.38V4.03c0-0.74-0.3-1.41-0.79-1.9c-0.49-0.49-1.16-0.79-1.9-0.79c-0.74,0-1.41,0.3-1.9,0.79
	c-0.49,0.49-0.79,1.16-0.79,1.9V5.82L2.69,5.82z M5.37,8.51c-0.62,0-1.12,0.5-1.12,1.12c0,0.46,0.28,0.85,0.67,1.03v0.76
	c0,0.25,0.2,0.45,0.45,0.45c0.25,0,0.45-0.2,0.45-0.45v-0.76c0.4-0.17,0.67-0.57,0.67-1.03C6.49,9.01,5.99,8.51,5.37,8.51L5.37,8.51
	z M9.4,5.82L9.4,5.82c0.74,0,1.34,0.61,1.34,1.34v5.82c0,0.74-0.6,1.34-1.34,1.34H1.34C0.6,14.33,0,13.73,0,12.99V7.17
	c0-0.74,0.6-1.34,1.34-1.34V4.03c0-1.11,0.45-2.12,1.18-2.85S4.26,0,5.37,0s2.12,0.45,2.85,1.18C8.95,1.91,9.4,2.92,9.4,4.03V5.82z"
	/>
</svg>
