<?xml version="1.0" encoding="utf-8"?>
<!-- Generator: Adobe Illustrator 27.9.0, SVG Export Plug-In . SVG Version: 6.00 Build 0)  -->
<svg version="1.1" id="Layer_1" xmlns="http://www.w3.org/2000/svg" xmlns:xlink="http://www.w3.org/1999/xlink" x="0px" y="0px"
	 viewBox="0 0 512 512" style="enable-background:new 0 0 512 512;" xml:space="preserve">
<path d="M106.7,405.3h128V448h-85.3c-11.8,0-21.3,9.6-21.3,21.3s9.6,21.3,21.3,21.3h213.3c11.8,0,21.3-9.6,21.3-21.3
	s-9.6-21.3-21.3-21.3h-85.3v-42.7h128c50.7-0.1,94.3-35.7,104.5-85.3H2.1C12.3,369.6,56,405.3,106.7,405.3z"/>
<path d="M405.3,21.3H106.7C47.8,21.4,0.1,69.1,0,128v149.3h512V128C511.9,69.1,464.2,21.4,405.3,21.3z"/>
</svg>
