<?xml version="1.0" encoding="utf-8"?>
<!-- Generator: Adobe Illustrator 27.8.0, SVG Export Plug-In . SVG Version: 6.00 Build 0)  -->
<svg version="1.1" id="Filled" xmlns="http://www.w3.org/2000/svg" xmlns:xlink="http://www.w3.org/1999/xlink" x="0px" y="0px"
	 viewBox="0 0 512 512" style="enable-background:new 0 0 512 512;" xml:space="preserve">
   <style>
   path{
    fill:#FFF;
   }
   </style>
<path d="M85.3,169.3V67.6c0-25.6,13.5-67.6,78.4-67.6c8.4,0.1,16.9,0.8,25.2,2c27,7.9,45.7,32.6,45.7,60.8v169.1
	c14,3.6,28.7,3.6,42.7,0V62.8c0.1-28.2,18.7-52.9,45.7-60.8c8.4-1.2,16.8-1.9,25.2-1.9c64.8-0.1,78.4,41.9,78.4,67.5v101.7
	c-0.1,38.1-25.3,71.5-61.9,82l-73.6,21.1c-23,6.6-47.4,6.6-70.4,0l-73.6-21.1C110.6,240.7,85.4,207.3,85.3,169.3L85.3,169.3z
	 M469.3,85.8v83.5c-0.2,57.1-38,107.2-92.9,123.1l-73.6,21c-30.6,8.7-63.1,8.7-93.7,0l-73.6-21.1c-54.8-15.8-92.7-66-92.8-123V85.8
	c-26.8,20-42.6,51.4-42.7,84.8v149.3c0.1,58.9,47.8,106.6,106.7,106.7h128v42.7h-64c-11.8,0-21.3,9.6-21.3,21.3
	c0,11.8,9.6,21.3,21.3,21.3h170.7c11.8,0,21.3-9.6,21.3-21.3c0-11.8-9.6-21.3-21.3-21.3h-64v-42.7h128
	c58.9-0.1,106.6-47.8,106.7-106.7V170.6C511.9,137.2,496.1,105.8,469.3,85.8z"/>
</svg>
